<?xml version="1.0" standalone="no"?>
<!DOCTYPE svg PUBLIC "-//W3C//DTD SVG 20010904//EN"
 "http://www.w3.org/TR/2001/REC-SVG-20010904/DTD/svg10.dtd">
<svg version="1.0" xmlns="http://www.w3.org/2000/svg"
 width="280.000000pt" height="280.000000pt" viewBox="0 0 280.000000 280.000000"
 preserveAspectRatio="xMidYMid meet">

<g transform="translate(0.000000,280.000000) scale(0.100000,-0.100000)"
fill="#000000" stroke="none">
<path d="M177 1413 c-21 -37 -39 -127 -40 -196 -1 -181 98 -339 263 -420 l65
-32 190 -3 c163 -2 188 0 173 11 -10 8 -18 19 -18 26 0 6 -4 11 -8 11 -11 0
-82 68 -82 78 0 4 -20 23 -45 42 -24 19 -44 40 -45 45 0 6 -9 17 -21 25 -34
25 -139 131 -139 141 0 6 -4 7 -10 4 -5 -3 -10 1 -10 9 0 9 -7 16 -15 16 -8 0
-15 8 -15 17 0 9 -2 14 -5 11 -3 -3 -57 46 -119 109 -63 63 -116 111 -119 106z"/>
</g>
</svg>
